<svg width="68" height="65" viewBox="0 0 68 65" fill="none" xmlns="http://www.w3.org/2000/svg">
<path d="M37.2024 37.2794C50.934 44.3614 55.5873 39.7935 55.5873 24.4973C55.5873 8.11836 56.4639 -1.86527e-06 40.1745 -1.86527e-06L21.8934 -1.86527e-06C16.4536 -1.86527e-06 11.7605 3.83811 10.6522 9.19293C8.9741 17.3005 16.0802 24.4953 24.1547 22.8643L36.7274 20.3247C37.1977 20.2297 37.6846 20.2593 38.1402 20.4106C41.1625 21.4147 40.3845 25.9136 37.2024 25.8329L18.2653 25.3523C15.1351 25.2728 12.5548 27.8027 12.5548 30.9512V41.483C12.5548 50.2477 33.7097 65 42.4265 65C36.1099 54.0182 34.4233 47.9286 37.2024 37.2794Z" fill="url(#paint0_linear_2_3)"/>
<defs>
<linearGradient id="paint0_linear_2_3" x1="38.334" y1="57.3529" x2="38.334" y2="4.27313e-06" gradientUnits="userSpaceOnUse">
<stop stop-color="#0051FF"/>
<stop offset="1" stop-color="#62E5FF"/>
</linearGradient>
</defs>
</svg>
